<svg width="69" height="69" viewBox="0 0 69 69" fill="none" xmlns="http://www.w3.org/2000/svg">
<path d="M10.5 68H1C1 41.8349 1 1 1 1H68V68H38" stroke="black"/>
<g clip-path="url(#clip0)">
<path d="M43.8217 22.7324H23.9635C23.2835 22.7328 22.7323 23.2843 22.7324 23.9646V43.8228C22.7328 44.5028 23.2843 45.054 23.9646 45.0539H34.6561V36.4217H31.7569V33.043H34.6561V30.5565C34.6561 27.673 36.4164 26.1035 38.9886 26.1035C40.2206 26.1035 41.2793 26.1953 41.5879 26.2364V29.2501H39.8142C38.4148 29.2501 38.1438 29.9151 38.1438 30.8911V33.043H41.4898L41.0539 36.4217H38.1438V45.0539H43.8217C44.5021 45.054 45.0537 44.5026 45.0539 43.8222C45.0539 43.8221 45.0539 43.822 45.0539 43.8217V23.9635C45.0536 23.2835 44.5019 22.7323 43.8217 22.7324Z" fill="#372821"/>
</g>
<defs>
<clipPath id="clip0">
<rect width="23.8095" height="23.8095" fill="white" transform="translate(22 22)"/>
</clipPath>
</defs>
</svg>
