<svg width="69" height="69" viewBox="0 0 69 69" fill="none" xmlns="http://www.w3.org/2000/svg">
<path d="M10.5 68H1C1 41.8349 1 1 1 1H68V68H38" stroke="black"/>
<g clip-path="url(#clip0)">
<path d="M39.0486 25H29.5705C25.9475 25 23 27.9475 23 31.5705V41.0486C23 44.6715 25.9475 47.619 29.5705 47.619H39.0486C42.6715 47.619 45.619 44.6715 45.619 41.0486V31.5705C45.619 27.9475 42.6715 25 39.0486 25ZM43.8519 41.0486C43.8519 43.6972 41.6972 45.8519 39.0486 45.8519H29.5705C26.9219 45.8519 24.7671 43.6972 24.7671 41.0486V31.5705C24.7671 28.9219 26.9219 26.7671 29.5705 26.7671H39.0486C41.6972 26.7671 43.8519 28.9219 43.8519 31.5705V41.0486Z" fill="#372821"/>
<path d="M34.3096 30.2129C30.9479 30.2129 28.213 32.9478 28.213 36.3094C28.213 39.6711 30.9479 42.406 34.3096 42.406C37.6712 42.406 40.4061 39.6711 40.4061 36.3094C40.4061 32.9478 37.6712 30.2129 34.3096 30.2129ZM34.3096 40.6389C31.9223 40.6389 29.9801 38.6967 29.9801 36.3094C29.9801 33.9222 31.9223 31.98 34.3096 31.98C36.6968 31.98 38.639 33.9222 38.639 36.3094C38.639 38.6967 36.6968 40.6389 34.3096 40.6389Z" fill="#372821"/>
<path d="M40.4944 31.0081C40.9824 31.0081 41.378 30.6125 41.378 30.1245C41.378 29.6365 40.9824 29.241 40.4944 29.241C40.0064 29.241 39.6108 29.6365 39.6108 30.1245C39.6108 30.6125 40.0064 31.0081 40.4944 31.0081Z" fill="#372821"/>
</g>
<defs>
<clipPath id="clip0">
<rect width="22.619" height="22.619" fill="white" transform="translate(23 25)"/>
</clipPath>
</defs>
</svg>
