<svg width="15" height="15" viewBox="0 0 15 15" fill="none" xmlns="http://www.w3.org/2000/svg">
<g clip-path="url(#clip0)">
<path d="M1.18258 7.67259C0.922032 7.67259 0.705214 7.45578 0.700659 7.19067C0.705214 6.92557 0.917477 6.71331 1.18258 6.70875L6.97108 6.71361L6.97108 0.920251C6.97108 0.659705 7.1879 0.442886 7.44814 0.44319C7.7178 0.44319 7.93492 0.660312 7.93006 0.925109L7.93037 6.70906L13.7189 6.71392C13.984 6.70936 14.2008 6.92618 14.2008 7.19583C14.2008 7.45638 13.984 7.6732 13.7237 7.6729L7.93037 7.6729L7.93522 13.4614C7.93067 13.7265 7.71841 13.9388 7.4533 13.9433C7.1882 13.9388 6.97108 13.7216 6.97138 13.4614L6.96653 7.6729L1.18258 7.67259Z" fill="#372821"/>
</g>
<defs>
<clipPath id="clip0">
<rect width="9.82582" height="9.82582" fill="white" transform="translate(0.504272 7.19141) rotate(-45)"/>
</clipPath>
</defs>
</svg>
