<svg width="17" height="17" viewBox="0 0 17 17" fill="none" xmlns="http://www.w3.org/2000/svg">
<path d="M0.241321 1.41846C-0.0774292 1.09971 -0.0774292 0.569202 0.241321 0.239307C0.571216 -0.0794434 1.09058 -0.0794434 1.42047 0.239307L8.49613 7.32685L15.5837 0.239307C15.9024 -0.0794434 16.4329 -0.0794434 16.7509 0.239307C17.0808 0.569202 17.0808 1.10045 16.7509 1.41846L9.67528 8.49486L16.7509 15.5824C17.0808 15.9012 17.0808 16.4317 16.7509 16.7616C16.4322 17.0803 15.9017 17.0803 15.5837 16.7616L8.49613 9.67401L1.42047 16.7616C1.09058 17.0803 0.571216 17.0803 0.241321 16.7616C-0.0774292 16.4317 -0.0774292 15.9004 0.241321 15.5824L7.31698 8.49486L0.241321 1.41846Z" fill="#A6A6A6"/>
</svg>
