<svg width="69" height="69" viewBox="0 0 69 69" fill="none" xmlns="http://www.w3.org/2000/svg">
<path d="M10.5 68H1C1 41.8349 1 1 1 1H68V68H38" stroke="black"/>
<g clip-path="url(#clip0)">
<path d="M48 27.5224C47.0703 27.9107 46.0797 28.1682 45.0469 28.2932C46.1094 27.689 46.9203 26.7396 47.3016 25.5953C46.3109 26.1578 45.2172 26.5551 44.0516 26.7768C43.1109 25.823 41.7703 25.2322 40.3078 25.2322C37.4703 25.2322 35.1859 27.4256 35.1859 30.1146C35.1859 30.5015 35.2203 30.8735 35.3047 31.2277C31.0437 31.0298 27.2734 29.0849 24.7406 26.1221C24.2984 26.8527 24.0391 27.689 24.0391 28.5893C24.0391 30.2798 24.9531 31.7783 26.3156 32.6459C25.4922 32.631 24.6844 32.4033 24 32.0447C24 32.0596 24 32.0789 24 32.0982C24 34.4703 25.7766 36.4405 28.1062 36.8944C27.6891 37.003 27.2344 37.0551 26.7625 37.0551C26.4344 37.0551 26.1031 37.0372 25.7922 36.9718C26.4562 38.9048 28.3406 40.3259 30.5813 40.3721C28.8375 41.6712 26.6234 42.4539 24.2266 42.4539C23.8063 42.4539 23.4031 42.436 23 42.3869C25.2703 43.7813 27.9609 44.5774 30.8625 44.5774C40.2937 44.5774 45.45 37.1369 45.45 30.6875C45.45 30.4718 45.4422 30.2634 45.4312 30.0566C46.4484 29.3691 47.3031 28.5105 48 27.5224Z" fill="#372821"/>
</g>
<defs>
<clipPath id="clip0">
<rect width="25" height="23.8095" fill="white" transform="translate(23 23)"/>
</clipPath>
</defs>
</svg>
