<svg width="15" height="1" viewBox="0 0 15 1" fill="none" xmlns="http://www.w3.org/2000/svg">
<path d="M7.03157 0.0274394C7.28864 0.0274391 7.26077 0.0365496 7.52588 0.0319943C7.79098 0.0365492 7.99086 0.0319943 7.99086 0.0319943L13.7842 0.0319941C14.0448 0.0319944 14.2616 0.248813 14.2613 0.509055C14.2613 0.778712 14.0442 0.995834 13.7794 0.990975L7.99541 0.991279C7.81108 0.990976 7.79553 0.990976 7.52588 0.990976C7.26533 0.990976 7.26667 0.990976 7.03157 0.991279L1.24307 0.996137C0.977967 0.991582 0.765704 0.779318 0.761148 0.514217C0.765703 0.249116 0.982826 0.0319937 1.24307 0.0322975L7.03157 0.0274394Z" fill="#372821"/>
</svg>
