<svg width="30" height="30" viewBox="0 0 30 30" fill="none" xmlns="http://www.w3.org/2000/svg">
<path d="M29.1107 13.1521C26.4838 11.0647 21.1575 7.56311 15 7.56311C8.8425 7.56311 3.51615 11.0651 0.887344 13.1538C0.323496 13.605 0 14.2777 0 15.0001C0 15.7225 0.323496 16.3951 0.881895 16.8417C1.71275 17.5214 2.74172 18.2513 3.85723 18.9526C4.17328 19.151 4.59076 19.0561 4.78951 18.74C4.98826 18.4236 4.89293 18.0065 4.57687 17.8077C3.50801 17.1357 2.52639 16.4397 1.73238 15.7904C1.49068 15.597 1.35211 15.309 1.35211 15.0001C1.35211 14.6911 1.49068 14.4028 1.73039 14.2111C4.21928 12.2333 9.25318 8.91557 15 8.91557C20.7468 8.91557 25.7807 12.2337 28.268 14.2098C28.5093 14.4031 28.6479 14.6911 28.6479 15.0004C28.6479 15.3094 28.5093 15.5974 28.2696 15.7894C25.7807 17.7668 20.7465 21.0846 15 21.0846C14.6268 21.0846 14.3239 21.3874 14.3239 21.7606C14.3239 22.1338 14.6268 22.4367 15 22.4367C21.1572 22.4367 26.4838 18.9354 29.1124 16.8457C29.6765 16.3944 30 15.7218 30 14.9997C30 14.2777 29.6765 13.6047 29.1107 13.1521Z" fill="white"/>
<path d="M15 7.5636C10.8993 7.5636 7.56335 10.8996 7.56335 15.0002C7.56335 19.1008 10.8993 22.4368 15 22.4368C15.3731 22.4368 15.676 22.1339 15.676 21.7607C15.676 21.3875 15.3731 21.0847 15 21.0847C11.6451 21.0847 8.91546 18.3551 8.91546 15.0002C8.91546 11.6453 11.6451 8.91571 15 8.91571C18.3549 8.91571 21.0844 11.6453 21.0844 15.0002C21.0844 15.3734 21.3873 15.6762 21.7605 15.6762C22.1337 15.6762 22.4366 15.3734 22.4366 15.0002C22.4366 10.8996 19.1006 7.5636 15 7.5636Z" fill="white"/>
</svg>
